<?xml version="1.0" encoding="UTF-8"?>
<svg width="234px" height="26px" viewBox="0 0 234 26" version="1.1" xmlns="http://www.w3.org/2000/svg" xmlns:xlink="http://www.w3.org/1999/xlink">
    <!-- Generator: Sketch 44.1 (41455) - http://www.bohemiancoding.com/sketch -->
    <title>Joshua Weber Copy</title>
    <desc>Created with Sketch.</desc>
    <defs></defs>
    <g id="Page-1" stroke="none" stroke-width="1" fill="none" fill-rule="evenodd">
        <path d="M3.9947896,5.5249999 C3.74464021,5.5249999 3.52860534,5.43403785 3.3466785,5.25211102 C3.16475167,5.07018419 3.07378962,4.85414931 3.07378962,4.60399992 L3.07378962,2.18211108 C3.07378962,1.93196169 3.16475167,1.71592682 3.3466785,1.53399999 C3.52860534,1.35207316 3.74464021,1.2611111 3.9947896,1.2611111 L18.8672337,1.2611111 C19.1173831,1.2611111 19.333418,1.35207316 19.5153448,1.53399999 C19.6972717,1.71592682 19.7882337,1.93196169 19.7882337,2.18211108 L19.7882337,16.6111108 C19.7882337,19.4991992 18.9695752,21.6993438 17.3322338,23.2116106 C15.6948923,24.7238774 13.3526194,25.4799995 10.305345,25.4799995 C7.23532974,25.4799995 4.92148255,24.7864138 3.36373406,23.3992217 C1.80598556,22.0120296 0.95890146,20.1927886 0.822456337,17.9414441 C0.799715483,17.6685538 0.879307277,17.4468338 1.06123411,17.2762774 C1.24316094,17.105721 1.47056607,17.0204441 1.74345632,17.0204441 L4.50645626,17.0204441 C4.71112394,17.0204441 4.91010343,17.0829805 5.10340069,17.2080552 C5.29669795,17.3331299 5.40471538,17.4866284 5.42745624,17.6685552 C5.63212392,18.6918936 6.1324152,19.5389777 6.92834509,20.2098329 C7.72427498,20.8806881 8.84993037,21.2161107 10.305345,21.2161107 C11.8744639,21.2161107 13.0797111,20.8010963 13.9211227,19.9710551 C14.7625343,19.141014 15.1832338,17.9528222 15.1832338,16.4064441 L15.1832338,5.5249999 L3.9947896,5.5249999 Z M41.3578259,16.3041108 C41.3578259,16.895373 41.3350853,17.4638858 41.2896036,18.0096663 C41.1758994,19.3968584 40.7551999,20.6589568 40.0274925,21.7959995 C39.2997852,22.9330422 38.3048878,23.8312925 37.0427704,24.4907773 C35.780653,25.150262 34.3423156,25.4799995 32.7277149,25.4799995 C31.1131143,25.4799995 29.6747769,25.150262 28.4126595,24.4907773 C27.1505421,23.8312925 26.1556446,22.9330422 25.4279373,21.7959995 C24.70023,20.6589568 24.2795305,19.3968584 24.1658262,18.0096663 C24.1430854,17.736776 24.1317151,17.1682632 24.1317151,16.3041108 C24.1317151,15.4172175 24.1430854,14.8373344 24.1658262,14.5644441 C24.2795305,13.1545112 24.70023,11.8810425 25.4279373,10.7439998 C26.1556446,9.60695709 27.1505421,8.70870683 28.4126595,8.04922207 C29.6747769,7.3897373 31.1131143,7.05999987 32.7277149,7.05999987 C34.3423156,7.05999987 35.780653,7.3897373 37.0427704,8.04922207 C38.3048878,8.70870683 39.2997852,9.60695709 40.0274925,10.7439998 C40.7551999,11.8810425 41.1758994,13.1545112 41.2896036,14.5644441 C41.3350853,15.1102246 41.3578259,15.6901077 41.3578259,16.3041108 Z M29.9476594,11.9719998 C29.1858408,12.5177803 28.7367157,13.438771 28.6002706,14.7349997 C28.5775297,14.9624082 28.5661595,15.4740698 28.5661595,16.2699997 C28.5661595,17.0659296 28.5775297,17.5775911 28.6002706,17.8049996 C28.7367157,19.1012283 29.1858408,20.0222191 29.9476594,20.5679996 C30.709478,21.1137801 31.6361539,21.3866662 32.7277149,21.3866662 C33.8192759,21.3866662 34.7459518,21.1137801 35.5077704,20.5679996 C36.269589,20.0222191 36.7187142,19.1012283 36.8551593,17.8049996 C36.900641,17.3501826 36.9233815,16.838521 36.9233815,16.2699997 C36.9233815,15.7014783 36.900641,15.1898168 36.8551593,14.7349997 C36.7187142,13.438771 36.269589,12.5177803 35.5077704,11.9719998 C34.7459518,11.4262193 33.8192759,11.1533331 32.7277149,11.1533331 C31.6361539,11.1533331 30.709478,11.4262193 29.9476594,11.9719998 Z M45.9571406,16.065333 C45.195322,15.1784397 44.8144184,14.0073033 44.8144184,12.5518886 C44.8144184,11.6195136 45.0986748,10.7326336 45.6671962,9.89122203 C46.2357175,9.04981043 47.054376,8.36759505 48.1231961,7.8445554 C49.1920162,7.32151576 50.4313742,7.05999987 51.8413071,7.05999987 C53.2512401,7.05999987 54.4962832,7.26466448 55.5764737,7.67399985 C56.6566643,8.08333522 57.4980633,8.62910753 58.1006959,9.31133315 C58.7033285,9.99355877 59.0273808,10.7098849 59.0728625,11.4603331 C59.0956034,11.7104825 59.0103265,11.9265174 58.8170292,12.1084442 C58.6237319,12.290371 58.4020119,12.3813331 58.1518625,12.3813331 L55.525307,12.3813331 C55.2524168,12.3813331 55.0363819,12.3415372 54.877196,12.2619442 C54.71801,12.1823512 54.5474561,12.0629635 54.3655293,11.9037775 C54.092639,11.676369 53.779957,11.4944449 53.4274738,11.3579998 C53.0749905,11.2215546 52.5462736,11.1533331 51.8413071,11.1533331 C51.0908589,11.1533331 50.47118,11.2670357 49.9822516,11.4944442 C49.4933233,11.7218528 49.2488627,12.0743307 49.2488627,12.5518886 C49.2488627,12.8930014 49.3682504,13.1602025 49.6070294,13.3534997 C49.8458084,13.546797 50.2608227,13.7173508 50.8520849,13.8651664 C51.4433471,14.0129819 52.5121512,14.2574424 54.0585293,14.5985553 C56.0142427,15.0078906 57.4241545,15.6673655 58.288307,16.5769997 C59.1524594,17.4866338 59.5845292,18.6464 59.5845292,20.0563329 C59.5845292,20.9887079 59.2775323,21.8699028 58.6635292,22.699944 C58.0495261,23.5299851 57.1683313,24.2008303 56.0199182,24.7124995 C54.871505,25.2241687 53.5354999,25.4799995 52.0118627,25.4799995 C50.4882255,25.4799995 49.1635906,25.2469092 48.0379183,24.7807217 C46.9122461,24.3145342 46.0481066,23.7175957 45.4454739,22.9898884 C44.8428413,22.2621811 44.518789,21.5117442 44.4733073,20.7385551 C44.4505664,20.4884057 44.5358434,20.2723709 44.7291406,20.090444 C44.9224379,19.9085172 45.1441579,19.8175551 45.3943073,19.8175551 L48.0208628,19.8175551 C48.2710122,19.8175551 48.4756768,19.8630362 48.6348628,19.9539996 C48.7940487,20.044963 48.9646026,20.1814061 49.1465294,20.3633329 C49.4649014,20.6817049 49.8173793,20.9318505 50.2039738,21.1137773 C50.5905683,21.2957042 51.1931919,21.3866662 52.0118627,21.3866662 C52.8305334,21.3866662 53.5582298,21.2786488 54.1949737,21.0626107 C54.8317177,20.8465726 55.1500848,20.51115 55.1500848,20.0563329 C55.1500848,19.7607018 55.0363823,19.5276116 54.8089737,19.3570552 C54.5815652,19.1864988 54.2290872,19.0330003 53.7515293,18.8965552 C53.2739714,18.76011 52.4553129,18.5668157 51.2955294,18.3166663 L49.9651961,18.0437774 C48.0549643,17.6117012 46.7189592,16.9522263 45.9571406,16.065333 Z M79.8920102,24.8659995 C79.7100834,25.0479263 79.4940485,25.1388884 79.2438992,25.1388884 L76.6514548,25.1388884 C76.4013054,25.1388884 76.1852705,25.0479263 76.0033437,24.8659995 C75.8214168,24.6840726 75.7304548,24.4680378 75.7304548,24.2178884 L75.7304548,15.5536663 C75.7304548,14.1437334 75.4007173,13.0408185 74.7412326,12.2448886 C74.0817478,11.4489588 73.115276,11.0509998 71.8417882,11.0509998 C70.6592638,11.0509998 69.7155325,11.460329 69.010566,12.2789998 C68.3055996,13.0976705 67.9531216,14.1892151 67.9531216,15.5536663 L67.9531216,24.2178884 C67.9531216,24.4680378 67.8621596,24.6840726 67.6802327,24.8659995 C67.4983059,25.0479263 67.282271,25.1388884 67.0321216,25.1388884 L64.4396773,25.1388884 C64.1895279,25.1388884 63.973493,25.0479263 63.7915662,24.8659995 C63.6096393,24.6840726 63.5186773,24.4680378 63.5186773,24.2178884 L63.5186773,1.84099998 C63.5186773,1.59085059 63.6096393,1.37481571 63.7915662,1.19288888 C63.973493,1.01096205 64.1895279,0.92 64.4396773,0.92 L67.0321216,0.92 C67.282271,0.92 67.4983059,1.01096205 67.6802327,1.19288888 C67.8621596,1.37481571 67.9531216,1.59085059 67.9531216,1.84099998 L67.9531216,9.10666649 C69.3175729,7.74221525 70.9548898,7.05999987 72.8651215,7.05999987 C75.434838,7.05999987 77.2938749,7.79906653 78.4422881,9.27722204 C79.5907012,10.7553775 80.1648991,12.6769509 80.1648991,15.0419997 L80.1648991,24.2178884 C80.1648991,24.4680378 80.0739371,24.6840726 79.8920102,24.8659995 Z M85.0882694,7.67399985 C85.2701963,7.49207302 85.4862311,7.40111097 85.7363805,7.40111097 L88.3288249,7.40111097 C88.5789743,7.40111097 88.7950092,7.49207302 88.976936,7.67399985 C89.1588628,7.85592668 89.2498249,8.07196156 89.2498249,8.32211095 L89.2498249,16.986333 C89.2498249,18.4190068 89.5511367,19.5276068 90.1537693,20.3121662 C90.7564019,21.0967257 91.6944481,21.4889996 92.9679359,21.4889996 C94.1504603,21.4889996 95.065766,21.0853554 95.7138803,20.2780551 C96.3619946,19.4707548 96.6860469,18.3735251 96.6860469,16.986333 L96.6860469,8.32211095 C96.6860469,8.07196156 96.777009,7.85592668 96.9589358,7.67399985 C97.1408627,7.49207302 97.3568975,7.40111097 97.6070469,7.40111097 L100.199491,7.40111097 C100.449641,7.40111097 100.665676,7.49207302 100.847602,7.67399985 C101.029529,7.85592668 101.120491,8.07196156 101.120491,8.32211095 L101.120491,24.2178884 C101.120491,24.4680378 101.029529,24.6840726 100.847602,24.8659995 C100.665676,25.0479263 100.449641,25.1388884 100.199491,25.1388884 L97.6070469,25.1388884 C97.3568975,25.1388884 97.1408627,25.0479263 96.9589358,24.8659995 C96.777009,24.6840726 96.6860469,24.4680378 96.6860469,24.2178884 L96.6860469,23.4333328 C95.3670774,24.7977841 93.7866118,25.4799995 91.9446026,25.4799995 C89.3748861,25.4799995 87.5442748,24.7466179 86.4527138,23.2798328 C85.3611528,21.8130478 84.8153805,19.8857893 84.8153805,17.4979996 L84.8153805,8.32211095 C84.8153805,8.07196156 84.9063426,7.85592668 85.0882694,7.67399985 Z M118.989028,8.90199983 C120.36485,10.1300059 121.05275,11.8923957 121.05275,14.1892219 L121.05275,24.2178884 C121.05275,24.4680378 120.961788,24.6840726 120.779861,24.8659995 C120.597934,25.0479263 120.3819,25.1388884 120.13175,25.1388884 L117.539306,25.1388884 C117.289156,25.1388884 117.073122,25.0479263 116.891195,24.8659995 C116.709268,24.6840726 116.618306,24.4680378 116.618306,24.2178884 L116.618306,23.0922217 C116.095266,23.8199291 115.373255,24.3998121 114.45225,24.8318884 C113.531246,25.2639646 112.422646,25.4799995 111.126417,25.4799995 C109.216185,25.4799995 107.703941,24.9853933 106.589639,23.9961662 C105.475338,23.006939 104.918195,21.7277852 104.918195,20.1586662 C104.918195,18.635029 105.458282,17.4240967 106.538473,16.525833 C107.618663,15.6275693 109.125222,15.0078903 111.058195,14.6667775 L116.618306,13.7116664 C116.618306,12.8475139 116.328364,12.2050945 115.748472,11.7843887 C115.168581,11.3636829 114.389718,11.1533331 113.411861,11.1533331 C112.888822,11.1533331 112.462437,11.2272398 112.132695,11.3750553 C111.802952,11.5228709 111.4789,11.7445909 111.160528,12.040222 C110.819415,12.3585939 110.444197,12.5177775 110.034861,12.5177775 L106.862528,12.5177775 C106.63512,12.5177775 106.44751,12.4438709 106.299695,12.2960553 C106.151879,12.1482398 106.089343,11.9720008 106.112084,11.7673331 C106.248529,11.0623666 106.606692,10.3460405 107.186584,9.61833314 C107.766476,8.89062582 108.585134,8.2823171 109.642584,7.79338874 C110.700033,7.30446038 111.956447,7.05999987 113.411861,7.05999987 C115.754169,7.05999987 117.613206,7.67399371 118.989028,8.90199983 Z M116.618306,17.2251108 L111.979195,18.0437774 C111.069561,18.2029634 110.404401,18.4360536 109.983695,18.7430552 C109.562989,19.0500567 109.352639,19.4650711 109.352639,19.9881107 C109.352639,20.4429278 109.58573,20.7897206 110.051917,21.0284996 C110.518105,21.2672785 111.103673,21.3866662 111.808639,21.3866662 C112.809237,21.3866662 113.673376,21.2047421 114.401084,20.8408885 C115.128791,20.4770348 115.680248,20.0051692 116.055472,19.4252774 C116.430697,18.8453856 116.618306,18.2257066 116.618306,17.5662219 L116.618306,17.2251108 Z M142.326713,23.9791106 C142.213008,24.3657051 142.065195,24.6556467 141.883268,24.8489439 C141.701341,25.0422412 141.451196,25.1388884 141.132824,25.1388884 L138.369824,25.1388884 C137.73308,25.1388884 137.335121,24.7522996 137.175935,23.9791106 L132.809713,2.45499997 L132.775602,2.18211108 C132.775602,1.93196169 132.866564,1.71592682 133.048491,1.53399999 C133.230418,1.35207316 133.446452,1.2611111 133.696602,1.2611111 L136.220824,1.2611111 C136.470973,1.2611111 136.692693,1.33501777 136.885991,1.48283332 C137.079288,1.63064887 137.210046,1.86373913 137.278268,2.18211108 L140.143602,16.6452219 L142.667824,7.53755541 C142.713306,7.31014687 142.832693,7.08842687 143.02599,6.87238876 C143.219288,6.65635065 143.497859,6.54833321 143.861713,6.54833321 L146.658824,6.54833321 C147.022677,6.54833321 147.301249,6.65635065 147.494546,6.87238876 C147.687843,7.08842687 147.807231,7.31014687 147.852713,7.53755541 L150.376935,16.6452219 L153.242268,2.18211108 C153.310491,1.86373913 153.441249,1.63064887 153.634546,1.48283332 C153.827843,1.33501777 154.049563,1.2611111 154.299712,1.2611111 L156.823935,1.2611111 C157.074084,1.2611111 157.290119,1.35207316 157.472046,1.53399999 C157.653973,1.71592682 157.744935,1.93196169 157.744935,2.18211108 L157.710823,2.45499997 L153.344601,23.9791106 C153.185415,24.7522996 152.787456,25.1388884 152.150712,25.1388884 L149.387713,25.1388884 C149.069341,25.1388884 148.819195,25.0422412 148.637268,24.8489439 C148.455341,24.6556467 148.307528,24.3657051 148.193824,23.9791106 L145.260268,13.7798886 L142.326713,23.9791106 Z M172.594638,8.23683317 C173.868126,9.02139264 174.851653,10.0731414 175.545249,11.3921109 C176.238845,12.7110804 176.585638,14.155103 176.585638,15.7242219 L176.585638,17.2592219 C176.585638,17.5093713 176.494676,17.7254061 176.312749,17.907333 C176.130822,18.0892598 175.914787,18.1802218 175.664638,18.1802218 L164.271527,18.1802218 C164.271527,19.1580786 164.658116,19.9369411 165.431305,20.5168329 C166.204494,21.0967247 167.125485,21.3866662 168.194305,21.3866662 C169.445052,21.3866662 170.411524,21.1251503 171.093749,20.6021107 C171.343899,20.4201839 171.548563,20.295111 171.707749,20.2268885 C171.866935,20.1586659 172.08297,20.1245551 172.35586,20.1245551 L175.084749,20.1245551 C175.334898,20.1245551 175.550933,20.2098321 175.73286,20.3803885 C175.914787,20.5509449 176.005749,20.7499244 176.005749,20.9773329 C176.005749,21.4548908 175.693067,22.0575144 175.067693,22.7852217 C174.44232,23.5129291 173.538385,24.1439783 172.35586,24.6783884 C171.173336,25.2127984 169.786165,25.4799995 168.194305,25.4799995 C166.511482,25.4799995 165.039033,25.0934107 163.776916,24.3202217 C162.514799,23.5470327 161.542642,22.4668583 160.860416,21.0796662 C160.17819,19.6924741 159.837083,18.089268 159.837083,16.2699997 C159.837083,14.5644356 160.17819,13.0123956 160.860416,11.6138331 C161.542642,10.2152706 162.520484,9.10667058 163.793972,8.28799984 C165.067459,7.4693291 166.534222,7.05999987 168.194305,7.05999987 C169.854387,7.05999987 171.32115,7.45227371 172.594638,8.23683317 Z M171.980638,14.2915553 C171.730489,12.1993967 170.46839,11.1533331 168.194305,11.1533331 C167.01178,11.1533331 166.085104,11.4717003 165.414249,12.1084442 C164.743394,12.7451881 164.36249,13.4728845 164.271527,14.2915553 L171.980638,14.2915553 Z M197.814119,16.2699997 C197.814119,16.838521 197.802749,17.23648 197.780008,17.4638885 C197.711785,18.8965623 197.359307,20.2211972 196.722563,21.4378329 C196.08582,22.6544686 195.204625,23.6323106 194.078952,24.3713884 C192.95328,25.1104661 191.651386,25.4799995 190.17323,25.4799995 C188.899742,25.4799995 187.842309,25.2753349 187.000897,24.8659995 C186.159485,24.4566641 185.50001,23.9791133 185.022453,23.4333328 L185.022453,24.2178884 C185.022453,24.4680378 184.931491,24.6840726 184.749564,24.8659995 C184.567637,25.0479263 184.351602,25.1388884 184.101453,25.1388884 L181.509008,25.1388884 C181.258859,25.1388884 181.042824,25.0479263 180.860897,24.8659995 C180.67897,24.6840726 180.588008,24.4680378 180.588008,24.2178884 L180.588008,1.84099998 C180.588008,1.59085059 180.67897,1.37481571 180.860897,1.19288888 C181.042824,1.01096205 181.258859,0.92 181.509008,0.92 L184.101453,0.92 C184.351602,0.92 184.567637,1.01096205 184.749564,1.19288888 C184.931491,1.37481571 185.022453,1.59085059 185.022453,1.84099998 L185.022453,9.10666649 C185.522751,8.56088599 186.193596,8.08333522 187.035008,7.67399985 C187.87642,7.26466448 188.922483,7.05999987 190.17323,7.05999987 C191.651386,7.05999987 192.95328,7.4295332 194.078952,8.16861095 C195.204625,8.90768871 196.08582,9.88553076 196.722563,11.1021664 C197.359307,12.3188021 197.711785,13.643437 197.780008,15.0761108 C197.802749,15.3035193 197.814119,15.7014783 197.814119,16.2699997 Z M186.33573,12.193722 C185.573912,12.887318 185.136157,13.8139939 185.022453,14.9737775 C184.999712,15.201186 184.988341,15.6332558 184.988341,16.2699997 C184.988341,16.9067436 184.999712,17.3388133 185.022453,17.5662219 C185.136157,18.7714871 185.568227,19.7095333 186.318675,20.3803885 C187.069123,21.0512437 188.012854,21.3866662 189.149897,21.3866662 C190.30968,21.3866662 191.264782,21.0455585 192.01523,20.3633329 C192.765678,19.6811073 193.209118,18.6350437 193.345563,17.2251108 C193.391045,16.7702937 193.413786,16.4519265 193.413786,16.2699997 C193.413786,14.5416948 193.027197,13.2568558 192.254008,12.4154442 C191.480819,11.5740326 190.446126,11.1533331 189.149897,11.1533331 C188.035595,11.1533331 187.097549,11.5001259 186.33573,12.193722 Z M213.857711,8.23683317 C215.131199,9.02139264 216.114726,10.0731414 216.808322,11.3921109 C217.501918,12.7110804 217.848711,14.155103 217.848711,15.7242219 L217.848711,17.2592219 C217.848711,17.5093713 217.757749,17.7254061 217.575822,17.907333 C217.393895,18.0892598 217.177861,18.1802218 216.927711,18.1802218 L205.5346,18.1802218 C205.5346,19.1580786 205.921189,19.9369411 206.694378,20.5168329 C207.467567,21.0967247 208.388558,21.3866662 209.457378,21.3866662 C210.708125,21.3866662 211.674597,21.1251503 212.356822,20.6021107 C212.606972,20.4201839 212.811636,20.295111 212.970822,20.2268885 C213.130008,20.1586659 213.346043,20.1245551 213.618933,20.1245551 L216.347822,20.1245551 C216.597972,20.1245551 216.814007,20.2098321 216.995933,20.3803885 C217.17786,20.5509449 217.268822,20.7499244 217.268822,20.9773329 C217.268822,21.4548908 216.95614,22.0575144 216.330767,22.7852217 C215.705393,23.5129291 214.801458,24.1439783 213.618933,24.6783884 C212.436409,25.2127984 211.049238,25.4799995 209.457378,25.4799995 C207.774555,25.4799995 206.302107,25.0934107 205.039989,24.3202217 C203.777872,23.5470327 202.805715,22.4668583 202.123489,21.0796662 C201.441264,19.6924741 201.100156,18.089268 201.100156,16.2699997 C201.100156,14.5644356 201.441264,13.0123956 202.123489,11.6138331 C202.805715,10.2152706 203.783557,9.10667058 205.057045,8.28799984 C206.330533,7.4693291 207.797296,7.05999987 209.457378,7.05999987 C211.11746,7.05999987 212.584223,7.45227371 213.857711,8.23683317 Z M213.243711,14.2915553 C212.993562,12.1993967 211.731463,11.1533331 209.457378,11.1533331 C208.274854,11.1533331 207.348178,11.4717003 206.677322,12.1084442 C206.006467,12.7451881 205.625564,13.4728845 205.5346,14.2915553 L213.243711,14.2915553 Z M227.18947,12.3983886 C226.586838,13.0010213 226.285526,13.9845484 226.285526,15.3489997 L226.285526,24.2178884 C226.285526,24.4680378 226.194564,24.6840726 226.012637,24.8659995 C225.83071,25.0479263 225.614675,25.1388884 225.364526,25.1388884 L222.772081,25.1388884 C222.521932,25.1388884 222.305897,25.0479263 222.12397,24.8659995 C221.942043,24.6840726 221.851081,24.4680378 221.851081,24.2178884 L221.851081,8.32211095 C221.851081,8.07196156 221.942043,7.85592668 222.12397,7.67399985 C222.305897,7.49207302 222.521932,7.40111097 222.772081,7.40111097 L225.364526,7.40111097 C225.614675,7.40111097 225.83071,7.49207302 226.012637,7.67399985 C226.194564,7.85592668 226.285526,8.07196156 226.285526,8.32211095 L226.285526,9.10666649 C226.899529,8.51540429 227.547633,8.08333454 228.229859,7.81044429 C228.912085,7.53755405 229.776224,7.40111097 230.822303,7.40111097 L232.357303,7.40111097 C232.607453,7.40111097 232.823488,7.49207302 233.005415,7.67399985 C233.187341,7.85592668 233.278303,8.07196156 233.278303,8.32211095 L233.278303,10.5734442 C233.278303,10.8235936 233.187341,11.0396285 233.005415,11.2215553 C232.823488,11.4034822 232.607453,11.4944442 232.357303,11.4944442 L230.140081,11.4944442 C228.77563,11.4944442 227.792103,11.795756 227.18947,12.3983886 Z" id="Joshua-Weber-Copy" fill="#fff"></path>
    </g>
</svg>